<mxfile host="Electron" agent="Mozilla/5.0 (Windows NT 10.0; Win64; x64) AppleWebKit/537.36 (KHTML, like Gecko) draw.io/27.0.5 Chrome/134.0.6998.205 Electron/35.3.0 Safari/537.36" version="27.0.5">
  <diagram name="UC-01 Submit Incident Report" id="WDLoUnQYjPUsdbuyGO2E">
    <mxGraphModel dx="2574" dy="2418" grid="1" gridSize="10" guides="1" tooltips="1" connect="1" arrows="1" fold="1" page="1" pageScale="1" pageWidth="827" pageHeight="1169" math="0" shadow="0">
      <root>
        <mxCell id="0" />
        <mxCell id="1" parent="0" />
        <mxCell id="HlGrzAtdGi227fvigbE4-14" value="Public" style="shape=umlActor;verticalLabelPosition=bottom;verticalAlign=top;" parent="1" vertex="1">
          <mxGeometry x="50" y="40" width="30" height="60" as="geometry" />
        </mxCell>
        <mxCell id="HlGrzAtdGi227fvigbE4-15" value="Police\nOfficer" style="shape=umlActor;verticalLabelPosition=bottom;verticalAlign=top;" parent="1" vertex="1">
          <mxGeometry x="-10" y="310" width="30" height="60" as="geometry" />
        </mxCell>
        <mxCell id="HlGrzAtdGi227fvigbE4-16" value="Forensic\nAnalyst" style="shape=umlActor;verticalLabelPosition=bottom;verticalAlign=top;" parent="1" vertex="1">
          <mxGeometry x="680" y="460" width="30" height="60" as="geometry" />
        </mxCell>
        <mxCell id="HlGrzAtdGi227fvigbE4-17" value="Admin" style="shape=umlActor;verticalLabelPosition=bottom;verticalAlign=top;" parent="1" vertex="1">
          <mxGeometry x="827" y="170" width="30" height="60" as="geometry" />
        </mxCell>
        <mxCell id="HlGrzAtdGi227fvigbE4-18" value="File Incident\nReport" style="ellipse;whiteSpace=wrap;html=1;" parent="1" vertex="1">
          <mxGeometry x="150" y="80" width="140" height="60" as="geometry" />
        </mxCell>
        <mxCell id="HlGrzAtdGi227fvigbE4-19" value="Review Cases" style="ellipse;whiteSpace=wrap;html=1;" parent="1" vertex="1">
          <mxGeometry x="420" y="350" width="140" height="60" as="geometry" />
        </mxCell>
        <mxCell id="HlGrzAtdGi227fvigbE4-21" value="Track Chain-of-Custody" style="ellipse;whiteSpace=wrap;html=1;" parent="1" vertex="1">
          <mxGeometry x="520" y="290" width="160" height="60" as="geometry" />
        </mxCell>
        <mxCell id="HlGrzAtdGi227fvigbE4-23" value="Generate\nReports" style="ellipse;whiteSpace=wrap;html=1;" parent="1" vertex="1">
          <mxGeometry x="430" y="600" width="120" height="60" as="geometry" />
        </mxCell>
        <mxCell id="HlGrzAtdGi227fvigbE4-35" value="Give_Feedback" style="ellipse;whiteSpace=wrap;html=1;" parent="1" vertex="1">
          <mxGeometry x="330" y="50" width="120" height="60" as="geometry" />
        </mxCell>
        <mxCell id="HlGrzAtdGi227fvigbE4-37" value="&lt;font style=&quot;font-size: 19px;&quot;&gt;Crime Management System(CMS)&lt;/font&gt;" style="text;html=1;align=center;verticalAlign=middle;whiteSpace=wrap;rounded=0;" parent="1" vertex="1">
          <mxGeometry x="345" y="-170" width="137" height="60" as="geometry" />
        </mxCell>
        <mxCell id="HlGrzAtdGi227fvigbE4-38" value="Officer Login" style="ellipse;whiteSpace=wrap;html=1;" parent="1" vertex="1">
          <mxGeometry x="190" y="230" width="120" height="60" as="geometry" />
        </mxCell>
        <mxCell id="HlGrzAtdGi227fvigbE4-39" value="Lookup Tools" style="ellipse;whiteSpace=wrap;html=1;" parent="1" vertex="1">
          <mxGeometry x="190" y="290" width="120" height="60" as="geometry" />
        </mxCell>
        <mxCell id="HlGrzAtdGi227fvigbE4-40" value="LogOut" style="ellipse;whiteSpace=wrap;html=1;" parent="1" vertex="1">
          <mxGeometry x="-10" y="660" width="120" height="60" as="geometry" />
        </mxCell>
        <mxCell id="HlGrzAtdGi227fvigbE4-41" value="Pay Fines/ Apply Permit" style="ellipse;whiteSpace=wrap;html=1;" parent="1" vertex="1">
          <mxGeometry x="170" y="-20" width="120" height="60" as="geometry" />
        </mxCell>
        <mxCell id="HlGrzAtdGi227fvigbE4-49" value="" style="endArrow=classic;html=1;rounded=0;exitX=0.5;exitY=0.5;exitDx=0;exitDy=0;exitPerimeter=0;entryX=0;entryY=0.5;entryDx=0;entryDy=0;" parent="1" source="HlGrzAtdGi227fvigbE4-14" target="HlGrzAtdGi227fvigbE4-41" edge="1">
          <mxGeometry width="50" height="50" relative="1" as="geometry">
            <mxPoint x="450" y="330" as="sourcePoint" />
            <mxPoint x="500" y="280" as="targetPoint" />
          </mxGeometry>
        </mxCell>
        <mxCell id="HlGrzAtdGi227fvigbE4-50" value="" style="endArrow=classic;html=1;rounded=0;entryX=0;entryY=0.5;entryDx=0;entryDy=0;exitX=0.5;exitY=0.5;exitDx=0;exitDy=0;exitPerimeter=0;" parent="1" source="HlGrzAtdGi227fvigbE4-14" target="HlGrzAtdGi227fvigbE4-18" edge="1">
          <mxGeometry width="50" height="50" relative="1" as="geometry">
            <mxPoint x="70" y="70" as="sourcePoint" />
            <mxPoint x="240" y="30" as="targetPoint" />
          </mxGeometry>
        </mxCell>
        <mxCell id="HlGrzAtdGi227fvigbE4-51" value="" style="endArrow=classic;html=1;rounded=0;entryX=0;entryY=0.5;entryDx=0;entryDy=0;exitX=0.5;exitY=0.5;exitDx=0;exitDy=0;exitPerimeter=0;" parent="1" source="HlGrzAtdGi227fvigbE4-14" target="HlGrzAtdGi227fvigbE4-35" edge="1">
          <mxGeometry width="50" height="50" relative="1" as="geometry">
            <mxPoint x="80" y="80" as="sourcePoint" />
            <mxPoint x="240" y="120" as="targetPoint" />
          </mxGeometry>
        </mxCell>
        <mxCell id="HlGrzAtdGi227fvigbE4-52" value="" style="endArrow=classic;html=1;rounded=0;entryX=0;entryY=0.5;entryDx=0;entryDy=0;exitX=0.5;exitY=0.5;exitDx=0;exitDy=0;exitPerimeter=0;" parent="1" source="HlGrzAtdGi227fvigbE4-15" target="HlGrzAtdGi227fvigbE4-38" edge="1">
          <mxGeometry width="50" height="50" relative="1" as="geometry">
            <mxPoint x="90" y="90" as="sourcePoint" />
            <mxPoint x="250" y="130" as="targetPoint" />
          </mxGeometry>
        </mxCell>
        <mxCell id="HlGrzAtdGi227fvigbE4-53" value="" style="endArrow=classic;html=1;rounded=0;entryX=0;entryY=0.5;entryDx=0;entryDy=0;exitX=0.5;exitY=0.5;exitDx=0;exitDy=0;exitPerimeter=0;" parent="1" source="HlGrzAtdGi227fvigbE4-15" target="HlGrzAtdGi227fvigbE4-39" edge="1">
          <mxGeometry width="50" height="50" relative="1" as="geometry">
            <mxPoint x="100" y="100" as="sourcePoint" />
            <mxPoint x="260" y="140" as="targetPoint" />
          </mxGeometry>
        </mxCell>
        <mxCell id="HlGrzAtdGi227fvigbE4-54" value="" style="endArrow=classic;html=1;rounded=0;entryX=0.5;entryY=0;entryDx=0;entryDy=0;exitX=0.5;exitY=0.5;exitDx=0;exitDy=0;exitPerimeter=0;" parent="1" source="HlGrzAtdGi227fvigbE4-15" target="HlGrzAtdGi227fvigbE4-40" edge="1">
          <mxGeometry width="50" height="50" relative="1" as="geometry">
            <mxPoint x="110" y="110" as="sourcePoint" />
            <mxPoint x="270" y="150" as="targetPoint" />
          </mxGeometry>
        </mxCell>
        <mxCell id="HlGrzAtdGi227fvigbE4-56" value="Case Management" style="ellipse;whiteSpace=wrap;html=1;" parent="1" vertex="1">
          <mxGeometry x="190" y="370" width="120" height="60" as="geometry" />
        </mxCell>
        <mxCell id="HlGrzAtdGi227fvigbE4-61" value="" style="endArrow=classic;html=1;rounded=0;entryX=0;entryY=0.5;entryDx=0;entryDy=0;exitX=0.5;exitY=0.5;exitDx=0;exitDy=0;exitPerimeter=0;" parent="1" source="HlGrzAtdGi227fvigbE4-15" target="HlGrzAtdGi227fvigbE4-56" edge="1">
          <mxGeometry width="50" height="50" relative="1" as="geometry">
            <mxPoint x="75" y="280" as="sourcePoint" />
            <mxPoint x="185" y="138" as="targetPoint" />
          </mxGeometry>
        </mxCell>
        <mxCell id="HlGrzAtdGi227fvigbE4-62" value="«extend»" style="dashed=1;html=1;endArrow=none;entryX=1;entryY=0.5;entryDx=0;entryDy=0;exitX=-0.021;exitY=0.714;exitDx=0;exitDy=0;exitPerimeter=0;" parent="1" source="HlGrzAtdGi227fvigbE4-63" target="HlGrzAtdGi227fvigbE4-38" edge="1">
          <mxGeometry relative="1" as="geometry">
            <mxPoint x="360" y="150" as="sourcePoint" />
            <mxPoint x="770" y="90" as="targetPoint" />
          </mxGeometry>
        </mxCell>
        <mxCell id="HlGrzAtdGi227fvigbE4-63" value="Error Message" style="ellipse;whiteSpace=wrap;html=1;" parent="1" vertex="1">
          <mxGeometry x="440" y="140" width="120" height="60" as="geometry" />
        </mxCell>
        <mxCell id="HlGrzAtdGi227fvigbE4-65" value="Verify Login" style="ellipse;whiteSpace=wrap;html=1;" parent="1" vertex="1">
          <mxGeometry x="440" y="230" width="120" height="60" as="geometry" />
        </mxCell>
        <mxCell id="HlGrzAtdGi227fvigbE4-66" value="«extend»" style="dashed=1;html=1;endArrow=none;entryX=1;entryY=0.5;entryDx=0;entryDy=0;exitX=0;exitY=0.5;exitDx=0;exitDy=0;" parent="1" source="HlGrzAtdGi227fvigbE4-65" target="HlGrzAtdGi227fvigbE4-38" edge="1">
          <mxGeometry relative="1" as="geometry">
            <mxPoint x="370" y="160" as="sourcePoint" />
            <mxPoint x="282" y="215" as="targetPoint" />
          </mxGeometry>
        </mxCell>
        <mxCell id="HlGrzAtdGi227fvigbE4-67" value="Traffice and Citations" style="ellipse;whiteSpace=wrap;html=1;" parent="1" vertex="1">
          <mxGeometry x="200" y="440" width="120" height="60" as="geometry" />
        </mxCell>
        <mxCell id="HlGrzAtdGi227fvigbE4-68" value="Mapping &amp;amp; AVL" style="ellipse;whiteSpace=wrap;html=1;" parent="1" vertex="1">
          <mxGeometry x="200" y="650" width="120" height="60" as="geometry" />
        </mxCell>
        <mxCell id="HlGrzAtdGi227fvigbE4-69" value="Communication and Reports" style="ellipse;whiteSpace=wrap;html=1;" parent="1" vertex="1">
          <mxGeometry x="200" y="570" width="120" height="60" as="geometry" />
        </mxCell>
        <mxCell id="HlGrzAtdGi227fvigbE4-70" value="" style="endArrow=classic;html=1;rounded=0;entryX=0;entryY=0.5;entryDx=0;entryDy=0;exitX=0.5;exitY=0.5;exitDx=0;exitDy=0;exitPerimeter=0;" parent="1" source="HlGrzAtdGi227fvigbE4-15" target="HlGrzAtdGi227fvigbE4-67" edge="1">
          <mxGeometry width="50" height="50" relative="1" as="geometry">
            <mxPoint x="75" y="280" as="sourcePoint" />
            <mxPoint x="165" y="400" as="targetPoint" />
          </mxGeometry>
        </mxCell>
        <mxCell id="HlGrzAtdGi227fvigbE4-71" value="" style="endArrow=classic;html=1;rounded=0;entryX=-0.021;entryY=0.256;entryDx=0;entryDy=0;exitX=0.5;exitY=0.5;exitDx=0;exitDy=0;exitPerimeter=0;entryPerimeter=0;" parent="1" source="HlGrzAtdGi227fvigbE4-15" target="HlGrzAtdGi227fvigbE4-68" edge="1">
          <mxGeometry width="50" height="50" relative="1" as="geometry">
            <mxPoint x="85" y="290" as="sourcePoint" />
            <mxPoint x="175" y="410" as="targetPoint" />
          </mxGeometry>
        </mxCell>
        <mxCell id="HlGrzAtdGi227fvigbE4-73" value="" style="endArrow=classic;html=1;rounded=0;entryX=0;entryY=0.5;entryDx=0;entryDy=0;exitX=0.5;exitY=0.5;exitDx=0;exitDy=0;exitPerimeter=0;" parent="1" source="HlGrzAtdGi227fvigbE4-15" target="HlGrzAtdGi227fvigbE4-69" edge="1">
          <mxGeometry width="50" height="50" relative="1" as="geometry">
            <mxPoint x="10" y="340" as="sourcePoint" />
            <mxPoint x="195" y="430" as="targetPoint" />
          </mxGeometry>
        </mxCell>
        <mxCell id="HlGrzAtdGi227fvigbE4-74" value="«include»" style="dashed=1;html=1;endArrow=none;entryX=1;entryY=0.5;entryDx=0;entryDy=0;exitX=0;exitY=0.5;exitDx=0;exitDy=0;" parent="1" source="HlGrzAtdGi227fvigbE4-20" target="HlGrzAtdGi227fvigbE4-56" edge="1">
          <mxGeometry relative="1" as="geometry">
            <mxPoint x="400" y="260" as="sourcePoint" />
            <mxPoint x="330" y="220" as="targetPoint" />
          </mxGeometry>
        </mxCell>
        <mxCell id="HlGrzAtdGi227fvigbE4-75" value="" style="endArrow=classic;html=1;rounded=0;exitX=0.5;exitY=0.5;exitDx=0;exitDy=0;exitPerimeter=0;entryX=1;entryY=0.5;entryDx=0;entryDy=0;" parent="1" source="HlGrzAtdGi227fvigbE4-16" target="HlGrzAtdGi227fvigbE4-20" edge="1">
          <mxGeometry width="50" height="50" relative="1" as="geometry">
            <mxPoint x="638.5" y="555" as="sourcePoint" />
            <mxPoint x="440" y="490" as="targetPoint" />
          </mxGeometry>
        </mxCell>
        <mxCell id="HlGrzAtdGi227fvigbE4-78" value="" style="endArrow=classic;html=1;rounded=0;entryX=0.686;entryY=0.158;entryDx=0;entryDy=0;exitX=0.5;exitY=0.5;exitDx=0;exitDy=0;exitPerimeter=0;entryPerimeter=0;" parent="1" source="HlGrzAtdGi227fvigbE4-17" target="HlGrzAtdGi227fvigbE4-23" edge="1">
          <mxGeometry width="50" height="50" relative="1" as="geometry">
            <mxPoint x="45" y="380" as="sourcePoint" />
            <mxPoint x="240" y="350" as="targetPoint" />
          </mxGeometry>
        </mxCell>
        <mxCell id="HlGrzAtdGi227fvigbE4-79" value="«include»" style="dashed=1;html=1;endArrow=none;entryX=1;entryY=0.5;entryDx=0;entryDy=0;exitX=0;exitY=0.5;exitDx=0;exitDy=0;" parent="1" source="HlGrzAtdGi227fvigbE4-23" target="HlGrzAtdGi227fvigbE4-69" edge="1">
          <mxGeometry relative="1" as="geometry">
            <mxPoint x="530" y="570" as="sourcePoint" />
            <mxPoint x="370" y="460" as="targetPoint" />
          </mxGeometry>
        </mxCell>
        <mxCell id="HlGrzAtdGi227fvigbE4-81" value="«include»" style="dashed=1;html=1;endArrow=none;entryX=1;entryY=0.5;entryDx=0;entryDy=0;exitX=0;exitY=0.5;exitDx=0;exitDy=0;" parent="1" source="HlGrzAtdGi227fvigbE4-19" target="HlGrzAtdGi227fvigbE4-56" edge="1">
          <mxGeometry relative="1" as="geometry">
            <mxPoint x="450" y="370" as="sourcePoint" />
            <mxPoint x="330" y="400" as="targetPoint" />
          </mxGeometry>
        </mxCell>
        <mxCell id="HlGrzAtdGi227fvigbE4-82" value="" style="endArrow=classic;html=1;rounded=0;exitX=0.5;exitY=0.5;exitDx=0;exitDy=0;exitPerimeter=0;entryX=1;entryY=0;entryDx=0;entryDy=0;" parent="1" source="HlGrzAtdGi227fvigbE4-17" target="HlGrzAtdGi227fvigbE4-20" edge="1">
          <mxGeometry width="50" height="50" relative="1" as="geometry">
            <mxPoint x="555" y="790" as="sourcePoint" />
            <mxPoint x="510" y="340" as="targetPoint" />
          </mxGeometry>
        </mxCell>
        <mxCell id="HlGrzAtdGi227fvigbE4-20" value="Check Evidence" style="ellipse;whiteSpace=wrap;html=1;" parent="1" vertex="1">
          <mxGeometry x="420" y="480" width="140" height="60" as="geometry" />
        </mxCell>
        <mxCell id="HlGrzAtdGi227fvigbE4-84" value="Admin Login" style="ellipse;whiteSpace=wrap;html=1;" parent="1" vertex="1">
          <mxGeometry x="610" y="180" width="140" height="60" as="geometry" />
        </mxCell>
        <mxCell id="HlGrzAtdGi227fvigbE4-85" value="" style="endArrow=classic;html=1;rounded=0;exitX=0.5;exitY=0.5;exitDx=0;exitDy=0;exitPerimeter=0;entryX=1;entryY=0.5;entryDx=0;entryDy=0;" parent="1" source="HlGrzAtdGi227fvigbE4-17" target="HlGrzAtdGi227fvigbE4-84" edge="1">
          <mxGeometry width="50" height="50" relative="1" as="geometry">
            <mxPoint x="735" y="280" as="sourcePoint" />
            <mxPoint x="550" y="429" as="targetPoint" />
          </mxGeometry>
        </mxCell>
        <mxCell id="HlGrzAtdGi227fvigbE4-86" value="«extend»" style="dashed=1;html=1;endArrow=none;entryX=1;entryY=0.5;entryDx=0;entryDy=0;exitX=0;exitY=0.5;exitDx=0;exitDy=0;" parent="1" source="HlGrzAtdGi227fvigbE4-84" target="HlGrzAtdGi227fvigbE4-65" edge="1">
          <mxGeometry relative="1" as="geometry">
            <mxPoint x="450" y="340" as="sourcePoint" />
            <mxPoint x="330" y="400" as="targetPoint" />
          </mxGeometry>
        </mxCell>
        <mxCell id="HlGrzAtdGi227fvigbE4-88" value="«extend»" style="dashed=1;html=1;endArrow=none;entryX=1;entryY=0.5;entryDx=0;entryDy=0;exitX=0;exitY=0.5;exitDx=0;exitDy=0;" parent="1" source="HlGrzAtdGi227fvigbE4-84" target="HlGrzAtdGi227fvigbE4-63" edge="1">
          <mxGeometry relative="1" as="geometry">
            <mxPoint x="580" y="220" as="sourcePoint" />
            <mxPoint x="520" y="260" as="targetPoint" />
          </mxGeometry>
        </mxCell>
        <mxCell id="HlGrzAtdGi227fvigbE4-91" value="Write Citation" style="ellipse;whiteSpace=wrap;html=1;" parent="1" vertex="1">
          <mxGeometry x="281.5" y="520" width="100" height="40" as="geometry" />
        </mxCell>
        <mxCell id="HlGrzAtdGi227fvigbE4-92" value="Route Planning" style="ellipse;whiteSpace=wrap;html=1;" parent="1" vertex="1">
          <mxGeometry x="150" y="740" width="100" height="40" as="geometry" />
        </mxCell>
        <mxCell id="HlGrzAtdGi227fvigbE4-93" value="«include»" style="dashed=1;html=1;endArrow=none;entryX=0.5;entryY=1;entryDx=0;entryDy=0;exitX=0.5;exitY=0;exitDx=0;exitDy=0;" parent="1" source="HlGrzAtdGi227fvigbE4-91" target="HlGrzAtdGi227fvigbE4-67" edge="1">
          <mxGeometry relative="1" as="geometry">
            <mxPoint x="440" y="450" as="sourcePoint" />
            <mxPoint x="330" y="400" as="targetPoint" />
          </mxGeometry>
        </mxCell>
        <mxCell id="HlGrzAtdGi227fvigbE4-94" value="«include»" style="dashed=1;html=1;endArrow=none;exitX=0.5;exitY=0;exitDx=0;exitDy=0;entryX=0.5;entryY=1;entryDx=0;entryDy=0;" parent="1" source="HlGrzAtdGi227fvigbE4-92" target="HlGrzAtdGi227fvigbE4-68" edge="1">
          <mxGeometry relative="1" as="geometry">
            <mxPoint x="450" y="460" as="sourcePoint" />
            <mxPoint x="310" y="550" as="targetPoint" />
          </mxGeometry>
        </mxCell>
        <mxCell id="HlGrzAtdGi227fvigbE4-95" value="Plate Checks" style="ellipse;whiteSpace=wrap;html=1;" parent="1" vertex="1">
          <mxGeometry x="170" y="520" width="100" height="40" as="geometry" />
        </mxCell>
        <mxCell id="HlGrzAtdGi227fvigbE4-96" value="Live Unit Location" style="ellipse;whiteSpace=wrap;html=1;" parent="1" vertex="1">
          <mxGeometry x="280" y="740" width="100" height="40" as="geometry" />
        </mxCell>
        <mxCell id="HlGrzAtdGi227fvigbE4-97" value="«include»" style="dashed=1;html=1;endArrow=none;entryX=0.5;entryY=1;entryDx=0;entryDy=0;exitX=0.5;exitY=0;exitDx=0;exitDy=0;" parent="1" source="HlGrzAtdGi227fvigbE4-95" target="HlGrzAtdGi227fvigbE4-67" edge="1">
          <mxGeometry relative="1" as="geometry">
            <mxPoint x="342" y="530" as="sourcePoint" />
            <mxPoint x="270" y="510" as="targetPoint" />
          </mxGeometry>
        </mxCell>
        <mxCell id="HlGrzAtdGi227fvigbE4-98" value="«include»" style="dashed=1;html=1;endArrow=none;exitX=0.5;exitY=0;exitDx=0;exitDy=0;entryX=0.5;entryY=1;entryDx=0;entryDy=0;" parent="1" source="HlGrzAtdGi227fvigbE4-96" target="HlGrzAtdGi227fvigbE4-68" edge="1">
          <mxGeometry relative="1" as="geometry">
            <mxPoint x="360" y="630" as="sourcePoint" />
            <mxPoint x="320" y="610" as="targetPoint" />
          </mxGeometry>
        </mxCell>
        <mxCell id="HlGrzAtdGi227fvigbE4-99" value="Dispatcher" style="shape=umlActor;verticalLabelPosition=bottom;verticalAlign=top;" parent="1" vertex="1">
          <mxGeometry x="245" y="830" width="30" height="60" as="geometry" />
        </mxCell>
        <mxCell id="HlGrzAtdGi227fvigbE4-100" value="" style="endArrow=classic;html=1;rounded=0;exitX=0.45;exitY=0.639;exitDx=0;exitDy=0;exitPerimeter=0;entryX=0.5;entryY=1;entryDx=0;entryDy=0;" parent="1" source="HlGrzAtdGi227fvigbE4-99" target="HlGrzAtdGi227fvigbE4-92" edge="1">
          <mxGeometry width="50" height="50" relative="1" as="geometry">
            <mxPoint x="645" y="660" as="sourcePoint" />
            <mxPoint x="510" y="510" as="targetPoint" />
          </mxGeometry>
        </mxCell>
        <mxCell id="HlGrzAtdGi227fvigbE4-101" value="" style="endArrow=classic;html=1;rounded=0;exitX=0.38;exitY=0.674;exitDx=0;exitDy=0;exitPerimeter=0;entryX=0.5;entryY=1;entryDx=0;entryDy=0;" parent="1" source="HlGrzAtdGi227fvigbE4-99" target="HlGrzAtdGi227fvigbE4-96" edge="1">
          <mxGeometry width="50" height="50" relative="1" as="geometry">
            <mxPoint x="655" y="670" as="sourcePoint" />
            <mxPoint x="520" y="520" as="targetPoint" />
          </mxGeometry>
        </mxCell>
        <mxCell id="HlGrzAtdGi227fvigbE4-102" value="«include»" style="dashed=1;html=1;endArrow=none;entryX=1;entryY=0.5;entryDx=0;entryDy=0;exitX=0;exitY=0.5;exitDx=0;exitDy=0;" parent="1" source="HlGrzAtdGi227fvigbE4-22" target="HlGrzAtdGi227fvigbE4-35" edge="1">
          <mxGeometry relative="1" as="geometry">
            <mxPoint x="620" y="220" as="sourcePoint" />
            <mxPoint x="570" y="180" as="targetPoint" />
          </mxGeometry>
        </mxCell>
        <mxCell id="HlGrzAtdGi227fvigbE4-103" value="«include»" style="dashed=1;html=1;endArrow=none;entryX=0.5;entryY=1;entryDx=0;entryDy=0;exitX=0.5;exitY=0.5;exitDx=0;exitDy=0;exitPerimeter=0;" parent="1" source="HlGrzAtdGi227fvigbE4-15" target="HlGrzAtdGi227fvigbE4-35" edge="1">
          <mxGeometry relative="1" as="geometry">
            <mxPoint x="850" y="219" as="sourcePoint" />
            <mxPoint x="484" y="80" as="targetPoint" />
          </mxGeometry>
        </mxCell>
        <mxCell id="HlGrzAtdGi227fvigbE4-104" value="" style="endArrow=classic;html=1;rounded=0;exitX=0.5;exitY=0.5;exitDx=0;exitDy=0;exitPerimeter=0;entryX=1;entryY=0.5;entryDx=0;entryDy=0;" parent="1" source="HlGrzAtdGi227fvigbE4-17" target="HlGrzAtdGi227fvigbE4-22" edge="1">
          <mxGeometry width="50" height="50" relative="1" as="geometry">
            <mxPoint x="842" y="200" as="sourcePoint" />
            <mxPoint x="560" y="380" as="targetPoint" />
          </mxGeometry>
        </mxCell>
        <mxCell id="HlGrzAtdGi227fvigbE4-22" value="Manage Users" style="ellipse;whiteSpace=wrap;html=1;" parent="1" vertex="1">
          <mxGeometry x="590" y="70" width="120" height="60" as="geometry" />
        </mxCell>
        <mxCell id="HlGrzAtdGi227fvigbE4-105" value="Collect Evidence" style="ellipse;whiteSpace=wrap;html=1;" parent="1" vertex="1">
          <mxGeometry x="420" y="420" width="140" height="60" as="geometry" />
        </mxCell>
        <mxCell id="HlGrzAtdGi227fvigbE4-106" value="«include»" style="dashed=1;html=1;endArrow=none;entryX=1;entryY=0.5;entryDx=0;entryDy=0;exitX=0;exitY=0.5;exitDx=0;exitDy=0;" parent="1" source="HlGrzAtdGi227fvigbE4-105" target="HlGrzAtdGi227fvigbE4-56" edge="1">
          <mxGeometry relative="1" as="geometry">
            <mxPoint x="430" y="390" as="sourcePoint" />
            <mxPoint x="320" y="410" as="targetPoint" />
          </mxGeometry>
        </mxCell>
        <mxCell id="HlGrzAtdGi227fvigbE4-107" value="" style="endArrow=classic;html=1;rounded=0;exitX=0.5;exitY=0.5;exitDx=0;exitDy=0;exitPerimeter=0;entryX=1;entryY=0.5;entryDx=0;entryDy=0;" parent="1" source="HlGrzAtdGi227fvigbE4-16" target="HlGrzAtdGi227fvigbE4-105" edge="1">
          <mxGeometry width="50" height="50" relative="1" as="geometry">
            <mxPoint x="705" y="500" as="sourcePoint" />
            <mxPoint x="570" y="520" as="targetPoint" />
          </mxGeometry>
        </mxCell>
        <mxCell id="HlGrzAtdGi227fvigbE4-108" value="" style="endArrow=classic;html=1;rounded=0;exitX=0.5;exitY=0.5;exitDx=0;exitDy=0;exitPerimeter=0;entryX=1;entryY=0.5;entryDx=0;entryDy=0;" parent="1" source="HlGrzAtdGi227fvigbE4-16" target="HlGrzAtdGi227fvigbE4-19" edge="1">
          <mxGeometry width="50" height="50" relative="1" as="geometry">
            <mxPoint x="705" y="500" as="sourcePoint" />
            <mxPoint x="570" y="460" as="targetPoint" />
          </mxGeometry>
        </mxCell>
        <mxCell id="OMu6bdM8eQipXoNLORix-2" value="Process Payment" style="ellipse;whiteSpace=wrap;html=1;" vertex="1" parent="1">
          <mxGeometry x="320" y="-70" width="120" height="60" as="geometry" />
        </mxCell>
        <mxCell id="OMu6bdM8eQipXoNLORix-3" value="Generate Permit" style="ellipse;whiteSpace=wrap;html=1;" vertex="1" parent="1">
          <mxGeometry x="320" y="-10" width="120" height="60" as="geometry" />
        </mxCell>
        <mxCell id="OMu6bdM8eQipXoNLORix-4" value="«include»" style="dashed=1;html=1;endArrow=none;entryX=1;entryY=0.5;entryDx=0;entryDy=0;exitX=0;exitY=0.5;exitDx=0;exitDy=0;" edge="1" parent="1" source="OMu6bdM8eQipXoNLORix-2" target="HlGrzAtdGi227fvigbE4-41">
          <mxGeometry relative="1" as="geometry">
            <mxPoint x="600" y="110" as="sourcePoint" />
            <mxPoint x="460" y="90" as="targetPoint" />
          </mxGeometry>
        </mxCell>
        <mxCell id="OMu6bdM8eQipXoNLORix-5" value="«include»" style="dashed=1;html=1;endArrow=none;entryX=1;entryY=0.5;entryDx=0;entryDy=0;exitX=0;exitY=0.5;exitDx=0;exitDy=0;" edge="1" parent="1" source="OMu6bdM8eQipXoNLORix-3" target="HlGrzAtdGi227fvigbE4-41">
          <mxGeometry relative="1" as="geometry">
            <mxPoint x="610" y="120" as="sourcePoint" />
            <mxPoint x="470" y="100" as="targetPoint" />
          </mxGeometry>
        </mxCell>
      </root>
    </mxGraphModel>
  </diagram>
</mxfile>
